# xmcd
#
# Track frame offsets:
#	150
#	13789
#	25726
#	45205
#	61706
#	77727
#	95207
#	107199
#	118235
#	131548
#	142762
#	155791
#	169711
#	184802
#	197569
#	211147
#	228037
#	242530
#	257265
#	267388
#	282766
#	293399
#	308899
#
# Disc length: 4286 seconds
#
# Revision: 1
# Processed by: cddbd v1.5.1PL0 Copyright (c) Steve Scherf et al.
# Submitted via: audiograbber 1.83.01
#
DISCID=3010bc17
DTITLE=www.rnrtogo.com - Country 03
DYEAR=2005
DGENRE=Country
TTITLE0=Travis Tritt - Country Club
TTITLE1=Toby Keith - I'm Just Talking About Tonight
TTITLE2=Shania Twain - Rock This Country
TTITLE3=Travis Tritt - Anymore
TTITLE4=Toby Keith - Kiss Me Like This
TTITLE5=Shania Twain - Man, I Feel Like a Woman
TTITLE6=Neal McCoy - Give Me That Wink
TTITLE7=Martina McBride - My Baby Loves Me
TTITLE8=Little Texas - Daddy's Money
TTITLE9=Keith Urban - Where The Blacktop Ends
TTITLE10=Johnny Cash - Tennessee Flat Top Box
TTITLE11=George Strait - Check Yes Or No
TTITLE12=Martina McBride - When God Fearing Women
TTITLE13=Johnny Cash - Orange Blossom Special
TTITLE14=George Strait - Ocean Front Property
TTITLE15=Garth Brooks - Standing Outside The Fire
TTITLE16=Brooks And Dunn - Aint Nothing About You
TTITLE17=Deana Carter - We Danced Away
TTITLE18=Brooks N Dunn - God Bless Texas
TTITLE19=Garth Brooks - Two Pina Coladas
TTITLE20=Allen Jackson - Tall Tall Trees
TTITLE21=Allen Jackson - Pickup Man
TTITLE22=Aaron Tippin - Aint Nothing Wrong With
EXTD=
EXTT0=
EXTT1=
EXTT2=
EXTT3=
EXTT4=
EXTT5=
EXTT6=
EXTT7=
EXTT8=
EXTT9=
EXTT10=
EXTT11=
EXTT12=
EXTT13=
EXTT14=
EXTT15=
EXTT16=
EXTT17=
EXTT18=
EXTT19=
EXTT20=
EXTT21=
EXTT22=
PLAYORDER=
